<mxfile host="app.diagrams.net" modified="2022-09-26T14:24:47.547Z" agent="5.0 (Windows NT 10.0; Win64; x64) AppleWebKit/537.36 (KHTML, like Gecko) Chrome/105.0.0.0 Safari/537.36 Edg/105.0.1343.50" etag="EwD_ZGSTWrasbVFT3_Pd" version="20.3.3" type="github">
  <diagram id="G0doiF0QVeqxdnfjwzPW" name="Trang-1">
    <mxGraphModel dx="2963" dy="1654" grid="1" gridSize="10" guides="1" tooltips="1" connect="1" arrows="1" fold="1" page="1" pageScale="1" pageWidth="827" pageHeight="1169" math="0" shadow="0">
      <root>
        <mxCell id="0" />
        <mxCell id="1" parent="0" />
        <mxCell id="F4xHrbZ4QBiIfUS1ALYh-2" value="" style="rounded=0;whiteSpace=wrap;html=1;" vertex="1" parent="1">
          <mxGeometry x="900" y="1220" width="690" height="460" as="geometry" />
        </mxCell>
        <mxCell id="6PNMOAPxWjzj0i29cbO6-39" value="" style="group" parent="1" vertex="1" connectable="0">
          <mxGeometry x="20" y="50" width="580" height="590" as="geometry" />
        </mxCell>
        <mxCell id="6PNMOAPxWjzj0i29cbO6-37" value="" style="whiteSpace=wrap;html=1;aspect=fixed;fontFamily=Times New Roman;fontSize=14;" parent="6PNMOAPxWjzj0i29cbO6-39" vertex="1">
          <mxGeometry width="580" height="580" as="geometry" />
        </mxCell>
        <mxCell id="6PNMOAPxWjzj0i29cbO6-1" value="&lt;h3&gt;&lt;font face=&quot;Times New Roman&quot;&gt;Employee&lt;/font&gt;&lt;/h3&gt;" style="rounded=0;whiteSpace=wrap;html=1;" parent="6PNMOAPxWjzj0i29cbO6-39" vertex="1">
          <mxGeometry x="230.15873015873015" y="168.57142857142858" width="110.47619047619047" height="56.19047619047619" as="geometry" />
        </mxCell>
        <mxCell id="6PNMOAPxWjzj0i29cbO6-2" value="&lt;h3&gt;Project&lt;/h3&gt;" style="rounded=0;whiteSpace=wrap;html=1;fontFamily=Times New Roman;" parent="6PNMOAPxWjzj0i29cbO6-39" vertex="1">
          <mxGeometry x="230.15873015873015" y="421.42857142857144" width="110.47619047619047" height="56.19047619047619" as="geometry" />
        </mxCell>
        <mxCell id="6PNMOAPxWjzj0i29cbO6-5" value="&lt;u&gt;Employee Number&lt;/u&gt;" style="ellipse;whiteSpace=wrap;html=1;fontFamily=Times New Roman;" parent="6PNMOAPxWjzj0i29cbO6-39" vertex="1">
          <mxGeometry x="441.90476190476187" y="140.47619047619048" width="92.06349206349206" height="37.46031746031746" as="geometry" />
        </mxCell>
        <mxCell id="6PNMOAPxWjzj0i29cbO6-7" value="Name" style="ellipse;whiteSpace=wrap;html=1;fontFamily=Times New Roman;" parent="6PNMOAPxWjzj0i29cbO6-39" vertex="1">
          <mxGeometry x="349.8412698412698" y="56.19047619047619" width="92.06349206349206" height="37.46031746031746" as="geometry" />
        </mxCell>
        <mxCell id="6PNMOAPxWjzj0i29cbO6-8" value="Age" style="ellipse;whiteSpace=wrap;html=1;fontFamily=Times New Roman;" parent="6PNMOAPxWjzj0i29cbO6-39" vertex="1">
          <mxGeometry x="128.88888888888889" y="56.19047619047619" width="92.06349206349206" height="37.46031746031746" as="geometry" />
        </mxCell>
        <mxCell id="6PNMOAPxWjzj0i29cbO6-10" value="" style="endArrow=classic;html=1;rounded=0;fontFamily=Times New Roman;entryX=0.5;entryY=1;entryDx=0;entryDy=0;exitX=0.75;exitY=0;exitDx=0;exitDy=0;" parent="6PNMOAPxWjzj0i29cbO6-39" source="6PNMOAPxWjzj0i29cbO6-1" target="6PNMOAPxWjzj0i29cbO6-7" edge="1">
          <mxGeometry width="50" height="50" relative="1" as="geometry">
            <mxPoint x="340.6349206349206" y="252.85714285714286" as="sourcePoint" />
            <mxPoint x="386.66666666666663" y="206.03174603174602" as="targetPoint" />
          </mxGeometry>
        </mxCell>
        <mxCell id="6PNMOAPxWjzj0i29cbO6-12" value="" style="endArrow=classic;html=1;rounded=0;fontFamily=Times New Roman;entryX=0.5;entryY=1;entryDx=0;entryDy=0;exitX=0.1;exitY=0.017;exitDx=0;exitDy=0;exitPerimeter=0;" parent="6PNMOAPxWjzj0i29cbO6-39" source="6PNMOAPxWjzj0i29cbO6-1" target="6PNMOAPxWjzj0i29cbO6-8" edge="1">
          <mxGeometry width="50" height="50" relative="1" as="geometry">
            <mxPoint x="340.6349206349206" y="252.85714285714286" as="sourcePoint" />
            <mxPoint x="386.66666666666663" y="206.03174603174602" as="targetPoint" />
          </mxGeometry>
        </mxCell>
        <mxCell id="6PNMOAPxWjzj0i29cbO6-13" value="" style="endArrow=classic;html=1;rounded=0;fontFamily=Times New Roman;entryX=0.98;entryY=0.617;entryDx=0;entryDy=0;exitX=0;exitY=0.5;exitDx=0;exitDy=0;entryPerimeter=0;" parent="6PNMOAPxWjzj0i29cbO6-39" source="6PNMOAPxWjzj0i29cbO6-1" target="6PNMOAPxWjzj0i29cbO6-15" edge="1">
          <mxGeometry width="50" height="50" relative="1" as="geometry">
            <mxPoint x="340.6349206349206" y="252.85714285714286" as="sourcePoint" />
            <mxPoint x="147.3015873015873" y="159.20634920634922" as="targetPoint" />
          </mxGeometry>
        </mxCell>
        <mxCell id="6PNMOAPxWjzj0i29cbO6-14" value="" style="endArrow=classic;html=1;rounded=0;fontFamily=Times New Roman;entryX=0;entryY=0.5;entryDx=0;entryDy=0;exitX=1;exitY=0.5;exitDx=0;exitDy=0;" parent="6PNMOAPxWjzj0i29cbO6-39" source="6PNMOAPxWjzj0i29cbO6-1" target="6PNMOAPxWjzj0i29cbO6-5" edge="1">
          <mxGeometry width="50" height="50" relative="1" as="geometry">
            <mxPoint x="340.6349206349206" y="252.85714285714286" as="sourcePoint" />
            <mxPoint x="386.66666666666663" y="206.03174603174602" as="targetPoint" />
          </mxGeometry>
        </mxCell>
        <mxCell id="6PNMOAPxWjzj0i29cbO6-15" value="Address" style="ellipse;shape=doubleEllipse;whiteSpace=wrap;html=1;fontFamily=Times New Roman;" parent="6PNMOAPxWjzj0i29cbO6-39" vertex="1">
          <mxGeometry x="36.82539682539682" y="131.11111111111111" width="92.06349206349206" height="56.19047619047619" as="geometry" />
        </mxCell>
        <mxCell id="6PNMOAPxWjzj0i29cbO6-17" value="&lt;u&gt;ID&lt;/u&gt;" style="ellipse;whiteSpace=wrap;html=1;fontFamily=Times New Roman;" parent="6PNMOAPxWjzj0i29cbO6-39" vertex="1">
          <mxGeometry x="64.44444444444444" y="430.7936507936508" width="92.06349206349206" height="37.46031746031746" as="geometry" />
        </mxCell>
        <mxCell id="6PNMOAPxWjzj0i29cbO6-18" value="Name" style="ellipse;whiteSpace=wrap;html=1;fontFamily=Times New Roman;" parent="6PNMOAPxWjzj0i29cbO6-39" vertex="1">
          <mxGeometry x="239.36507936507934" y="543.1746031746031" width="92.06349206349206" height="37.46031746031746" as="geometry" />
        </mxCell>
        <mxCell id="6PNMOAPxWjzj0i29cbO6-19" value="" style="endArrow=classic;html=1;rounded=0;fontFamily=Times New Roman;entryX=1;entryY=0.5;entryDx=0;entryDy=0;exitX=0;exitY=0.5;exitDx=0;exitDy=0;" parent="6PNMOAPxWjzj0i29cbO6-39" source="6PNMOAPxWjzj0i29cbO6-2" target="6PNMOAPxWjzj0i29cbO6-17" edge="1">
          <mxGeometry width="50" height="50" relative="1" as="geometry">
            <mxPoint x="349.8412698412698" y="346.5079365079365" as="sourcePoint" />
            <mxPoint x="156.5079365079365" y="252.85714285714286" as="targetPoint" />
          </mxGeometry>
        </mxCell>
        <mxCell id="6PNMOAPxWjzj0i29cbO6-20" value="" style="endArrow=classic;html=1;rounded=0;fontFamily=Times New Roman;entryX=0.5;entryY=0;entryDx=0;entryDy=0;exitX=0.5;exitY=1;exitDx=0;exitDy=0;" parent="6PNMOAPxWjzj0i29cbO6-39" source="6PNMOAPxWjzj0i29cbO6-2" target="6PNMOAPxWjzj0i29cbO6-18" edge="1">
          <mxGeometry width="50" height="50" relative="1" as="geometry">
            <mxPoint x="349.8412698412698" y="346.5079365079365" as="sourcePoint" />
            <mxPoint x="156.5079365079365" y="252.85714285714286" as="targetPoint" />
          </mxGeometry>
        </mxCell>
        <mxCell id="6PNMOAPxWjzj0i29cbO6-21" value="" style="endArrow=none;html=1;rounded=0;fontFamily=Times New Roman;exitX=0.5;exitY=0;exitDx=0;exitDy=0;entryX=0.5;entryY=1;entryDx=0;entryDy=0;" parent="6PNMOAPxWjzj0i29cbO6-39" source="6PNMOAPxWjzj0i29cbO6-22" target="6PNMOAPxWjzj0i29cbO6-1" edge="1">
          <mxGeometry width="50" height="50" relative="1" as="geometry">
            <mxPoint x="340.6349206349206" y="252.85714285714286" as="sourcePoint" />
            <mxPoint x="386.66666666666663" y="206.03174603174602" as="targetPoint" />
          </mxGeometry>
        </mxCell>
        <mxCell id="6PNMOAPxWjzj0i29cbO6-22" value="Work on" style="rhombus;whiteSpace=wrap;html=1;fontFamily=Times New Roman;" parent="6PNMOAPxWjzj0i29cbO6-39" vertex="1">
          <mxGeometry x="248.57142857142856" y="271.58730158730157" width="73.65079365079364" height="74.92063492063492" as="geometry" />
        </mxCell>
        <mxCell id="6PNMOAPxWjzj0i29cbO6-27" value="" style="shape=link;html=1;rounded=0;fontFamily=Times New Roman;fontSize=14;entryX=0.5;entryY=0;entryDx=0;entryDy=0;exitX=0.5;exitY=1;exitDx=0;exitDy=0;" parent="6PNMOAPxWjzj0i29cbO6-39" source="6PNMOAPxWjzj0i29cbO6-22" target="6PNMOAPxWjzj0i29cbO6-2" edge="1">
          <mxGeometry width="100" relative="1" as="geometry">
            <mxPoint x="303.8095238095238" y="327.77777777777777" as="sourcePoint" />
            <mxPoint x="395.87301587301585" y="327.77777777777777" as="targetPoint" />
          </mxGeometry>
        </mxCell>
        <mxCell id="6PNMOAPxWjzj0i29cbO6-28" value="N" style="edgeLabel;html=1;align=center;verticalAlign=middle;resizable=0;points=[];fontSize=14;fontFamily=Times New Roman;" parent="6PNMOAPxWjzj0i29cbO6-27" vertex="1" connectable="0">
          <mxGeometry x="0.2735" y="2" relative="1" as="geometry">
            <mxPoint x="8" as="offset" />
          </mxGeometry>
        </mxCell>
        <mxCell id="6PNMOAPxWjzj0i29cbO6-29" value="N" style="edgeLabel;html=1;align=center;verticalAlign=middle;resizable=0;points=[];fontSize=14;fontFamily=Times New Roman;" parent="6PNMOAPxWjzj0i29cbO6-27" vertex="1" connectable="0">
          <mxGeometry x="0.2735" y="2" relative="1" as="geometry">
            <mxPoint x="8" y="-151" as="offset" />
          </mxGeometry>
        </mxCell>
        <mxCell id="6PNMOAPxWjzj0i29cbO6-30" value="Billing rate" style="ellipse;whiteSpace=wrap;html=1;fontFamily=Times New Roman;fontSize=14;" parent="6PNMOAPxWjzj0i29cbO6-39" vertex="1">
          <mxGeometry x="101.26984126984127" y="285.63492063492066" width="92.06349206349206" height="46.82539682539682" as="geometry" />
        </mxCell>
        <mxCell id="6PNMOAPxWjzj0i29cbO6-31" value="Start date" style="ellipse;whiteSpace=wrap;html=1;fontFamily=Times New Roman;fontSize=14;" parent="6PNMOAPxWjzj0i29cbO6-39" vertex="1">
          <mxGeometry x="386.66666666666663" y="285.63492063492066" width="92.06349206349206" height="46.82539682539682" as="geometry" />
        </mxCell>
        <mxCell id="6PNMOAPxWjzj0i29cbO6-33" value="" style="endArrow=none;html=1;rounded=0;fontFamily=Times New Roman;fontSize=14;exitX=1;exitY=0.5;exitDx=0;exitDy=0;entryX=0;entryY=0.5;entryDx=0;entryDy=0;" parent="6PNMOAPxWjzj0i29cbO6-39" source="6PNMOAPxWjzj0i29cbO6-22" target="6PNMOAPxWjzj0i29cbO6-31" edge="1">
          <mxGeometry width="50" height="50" relative="1" as="geometry">
            <mxPoint x="322.22222222222223" y="346.5079365079365" as="sourcePoint" />
            <mxPoint x="368.25396825396825" y="299.6825396825397" as="targetPoint" />
          </mxGeometry>
        </mxCell>
        <mxCell id="6PNMOAPxWjzj0i29cbO6-35" value="" style="endArrow=none;html=1;rounded=0;fontFamily=Times New Roman;fontSize=14;exitX=0;exitY=0.5;exitDx=0;exitDy=0;entryX=1;entryY=0.5;entryDx=0;entryDy=0;" parent="6PNMOAPxWjzj0i29cbO6-39" source="6PNMOAPxWjzj0i29cbO6-22" target="6PNMOAPxWjzj0i29cbO6-30" edge="1">
          <mxGeometry width="50" height="50" relative="1" as="geometry">
            <mxPoint x="322.22222222222223" y="346.5079365079365" as="sourcePoint" />
            <mxPoint x="368.25396825396825" y="299.6825396825397" as="targetPoint" />
          </mxGeometry>
        </mxCell>
        <mxCell id="6PNMOAPxWjzj0i29cbO6-38" value="&lt;font style=&quot;font-size: 18px;&quot;&gt;Company Employees&lt;/font&gt;" style="text;html=1;strokeColor=none;fillColor=none;align=center;verticalAlign=middle;whiteSpace=wrap;rounded=0;fontFamily=Times New Roman;fontSize=14;fontStyle=1" parent="6PNMOAPxWjzj0i29cbO6-39" vertex="1">
          <mxGeometry x="200.23809523809524" width="179.52380952380952" height="28.095238095238095" as="geometry" />
        </mxCell>
        <mxCell id="6PNMOAPxWjzj0i29cbO6-51" value="" style="group" parent="1" vertex="1" connectable="0">
          <mxGeometry x="725" y="30" width="600" height="500" as="geometry" />
        </mxCell>
        <mxCell id="6PNMOAPxWjzj0i29cbO6-50" value="" style="rounded=0;whiteSpace=wrap;html=1;fontFamily=Times New Roman;fontSize=14;" parent="6PNMOAPxWjzj0i29cbO6-51" vertex="1">
          <mxGeometry width="600" height="500" as="geometry" />
        </mxCell>
        <mxCell id="6PNMOAPxWjzj0i29cbO6-40" value="&lt;b&gt;Course&lt;/b&gt;" style="rounded=0;whiteSpace=wrap;html=1;fontFamily=Times New Roman;fontSize=18;" parent="6PNMOAPxWjzj0i29cbO6-51" vertex="1">
          <mxGeometry x="240" y="140" width="120" height="60" as="geometry" />
        </mxCell>
        <mxCell id="6PNMOAPxWjzj0i29cbO6-41" value="&lt;u&gt;&lt;font style=&quot;font-size: 14px;&quot;&gt;&amp;nbsp;Course_Number&lt;/font&gt;&lt;/u&gt;" style="ellipse;whiteSpace=wrap;html=1;fontFamily=Times New Roman;fontSize=18;" parent="6PNMOAPxWjzj0i29cbO6-51" vertex="1">
          <mxGeometry x="40" y="60" width="120" height="40" as="geometry" />
        </mxCell>
        <mxCell id="6PNMOAPxWjzj0i29cbO6-42" value="&lt;font style=&quot;font-size: 14px;&quot;&gt;Course Name&lt;/font&gt;" style="ellipse;whiteSpace=wrap;html=1;fontFamily=Times New Roman;fontSize=18;" parent="6PNMOAPxWjzj0i29cbO6-51" vertex="1">
          <mxGeometry x="230" y="30" width="120" height="40" as="geometry" />
        </mxCell>
        <mxCell id="6PNMOAPxWjzj0i29cbO6-43" value="&lt;font style=&quot;font-size: 14px;&quot;&gt;Credit&lt;/font&gt;" style="ellipse;whiteSpace=wrap;html=1;fontFamily=Times New Roman;fontSize=18;" parent="6PNMOAPxWjzj0i29cbO6-51" vertex="1">
          <mxGeometry x="420" y="50" width="120" height="40" as="geometry" />
        </mxCell>
        <mxCell id="6PNMOAPxWjzj0i29cbO6-44" value="Prerequisite" style="rhombus;whiteSpace=wrap;html=1;fontFamily=Times New Roman;fontSize=14;" parent="6PNMOAPxWjzj0i29cbO6-51" vertex="1">
          <mxGeometry x="210" y="330" width="180" height="90" as="geometry" />
        </mxCell>
        <mxCell id="6PNMOAPxWjzj0i29cbO6-45" value="" style="endArrow=none;html=1;rounded=0;fontFamily=Times New Roman;fontSize=14;entryX=0.25;entryY=1;entryDx=0;entryDy=0;exitX=0;exitY=0.5;exitDx=0;exitDy=0;" parent="6PNMOAPxWjzj0i29cbO6-51" source="6PNMOAPxWjzj0i29cbO6-44" target="6PNMOAPxWjzj0i29cbO6-40" edge="1">
          <mxGeometry width="50" height="50" relative="1" as="geometry">
            <mxPoint x="-30" y="340" as="sourcePoint" />
            <mxPoint x="20" y="290" as="targetPoint" />
          </mxGeometry>
        </mxCell>
        <mxCell id="CnlkSe7IBKAiAECf2HbK-1" value="N" style="edgeLabel;html=1;align=center;verticalAlign=middle;resizable=0;points=[];fontSize=14;" parent="6PNMOAPxWjzj0i29cbO6-45" vertex="1" connectable="0">
          <mxGeometry x="0.3264" y="-1" relative="1" as="geometry">
            <mxPoint x="-11" as="offset" />
          </mxGeometry>
        </mxCell>
        <mxCell id="6PNMOAPxWjzj0i29cbO6-47" value="" style="endArrow=none;html=1;rounded=0;fontFamily=Times New Roman;fontSize=14;entryX=0.75;entryY=1;entryDx=0;entryDy=0;exitX=1;exitY=0.5;exitDx=0;exitDy=0;" parent="6PNMOAPxWjzj0i29cbO6-51" source="6PNMOAPxWjzj0i29cbO6-44" target="6PNMOAPxWjzj0i29cbO6-40" edge="1">
          <mxGeometry width="50" height="50" relative="1" as="geometry">
            <mxPoint x="-30" y="340" as="sourcePoint" />
            <mxPoint x="20" y="290" as="targetPoint" />
          </mxGeometry>
        </mxCell>
        <mxCell id="CnlkSe7IBKAiAECf2HbK-2" value="N" style="edgeLabel;html=1;align=center;verticalAlign=middle;resizable=0;points=[];fontSize=14;" parent="6PNMOAPxWjzj0i29cbO6-47" vertex="1" connectable="0">
          <mxGeometry x="0.2907" y="-2" relative="1" as="geometry">
            <mxPoint x="7" as="offset" />
          </mxGeometry>
        </mxCell>
        <mxCell id="F4xHrbZ4QBiIfUS1ALYh-1" value="&lt;b style=&quot;font-size: 18px;&quot;&gt;Course&lt;/b&gt;" style="text;html=1;strokeColor=none;fillColor=none;align=center;verticalAlign=middle;whiteSpace=wrap;rounded=0;fontFamily=Times New Roman;fontSize=14;fontStyle=1" vertex="1" parent="6PNMOAPxWjzj0i29cbO6-51">
          <mxGeometry x="200.23809523809518" y="1.8999999999999986" width="179.52380952380952" height="28.095238095238095" as="geometry" />
        </mxCell>
        <mxCell id="6PNMOAPxWjzj0i29cbO6-177" value="" style="group" parent="1" vertex="1" connectable="0">
          <mxGeometry x="20" y="810" width="720" height="720" as="geometry" />
        </mxCell>
        <mxCell id="6PNMOAPxWjzj0i29cbO6-174" value="" style="whiteSpace=wrap;html=1;aspect=fixed;fontFamily=Times New Roman;fontSize=18;" parent="6PNMOAPxWjzj0i29cbO6-177" vertex="1">
          <mxGeometry width="720" height="720" as="geometry" />
        </mxCell>
        <mxCell id="6PNMOAPxWjzj0i29cbO6-175" value="5. Non-Profit organization" style="text;html=1;strokeColor=none;fillColor=none;align=center;verticalAlign=middle;whiteSpace=wrap;rounded=0;fontFamily=Times New Roman;fontSize=18;fontStyle=1" parent="6PNMOAPxWjzj0i29cbO6-177" vertex="1">
          <mxGeometry x="243.29999999999995" y="10" width="210" height="30" as="geometry" />
        </mxCell>
        <mxCell id="6PNMOAPxWjzj0i29cbO6-136" value="Person" style="rounded=0;whiteSpace=wrap;html=1;fontFamily=Times New Roman;fontSize=14;" parent="6PNMOAPxWjzj0i29cbO6-177" vertex="1">
          <mxGeometry x="290.32612903225805" y="180" width="94.83870967741936" height="60" as="geometry" />
        </mxCell>
        <mxCell id="6PNMOAPxWjzj0i29cbO6-137" value="Employee" style="rounded=0;whiteSpace=wrap;html=1;fontFamily=Times New Roman;fontSize=14;" parent="6PNMOAPxWjzj0i29cbO6-177" vertex="1">
          <mxGeometry x="148.4632258064516" y="380" width="94.83870967741936" height="60" as="geometry" />
        </mxCell>
        <mxCell id="6PNMOAPxWjzj0i29cbO6-139" value="Donor" style="rounded=0;whiteSpace=wrap;html=1;fontFamily=Times New Roman;fontSize=14;" parent="6PNMOAPxWjzj0i29cbO6-177" vertex="1">
          <mxGeometry x="421.1245161290322" y="380" width="94.83870967741936" height="60" as="geometry" />
        </mxCell>
        <mxCell id="6PNMOAPxWjzj0i29cbO6-140" value="Volunteer" style="rounded=0;whiteSpace=wrap;html=1;fontFamily=Times New Roman;fontSize=14;" parent="6PNMOAPxWjzj0i29cbO6-177" vertex="1">
          <mxGeometry x="290.32612903225805" y="380" width="94.83870967741936" height="60" as="geometry" />
        </mxCell>
        <mxCell id="6PNMOAPxWjzj0i29cbO6-141" value="&lt;font style=&quot;font-size: 18px;&quot;&gt;&lt;b&gt;o&lt;/b&gt;&lt;/font&gt;" style="ellipse;whiteSpace=wrap;html=1;aspect=fixed;fontFamily=Times New Roman;fontSize=14;" parent="6PNMOAPxWjzj0i29cbO6-177" vertex="1">
          <mxGeometry x="322.3341935483871" y="280" width="30.822580645161292" height="30.822580645161292" as="geometry" />
        </mxCell>
        <mxCell id="6PNMOAPxWjzj0i29cbO6-142" value="" style="endArrow=none;html=1;rounded=0;fontFamily=Times New Roman;fontSize=18;exitX=0.5;exitY=0;exitDx=0;exitDy=0;entryX=0;entryY=1;entryDx=0;entryDy=0;" parent="6PNMOAPxWjzj0i29cbO6-177" source="6PNMOAPxWjzj0i29cbO6-137" target="6PNMOAPxWjzj0i29cbO6-141" edge="1">
          <mxGeometry width="50" height="50" relative="1" as="geometry">
            <mxPoint x="361.8503225806452" y="240" as="sourcePoint" />
            <mxPoint x="401.36645161290323" y="190" as="targetPoint" />
          </mxGeometry>
        </mxCell>
        <mxCell id="6PNMOAPxWjzj0i29cbO6-143" value="" style="endArrow=none;html=1;rounded=0;fontFamily=Times New Roman;fontSize=18;exitX=0.5;exitY=0;exitDx=0;exitDy=0;entryX=0.5;entryY=1;entryDx=0;entryDy=0;" parent="6PNMOAPxWjzj0i29cbO6-177" source="6PNMOAPxWjzj0i29cbO6-140" target="6PNMOAPxWjzj0i29cbO6-141" edge="1">
          <mxGeometry width="50" height="50" relative="1" as="geometry">
            <mxPoint x="361.8503225806452" y="240" as="sourcePoint" />
            <mxPoint x="401.36645161290323" y="190" as="targetPoint" />
          </mxGeometry>
        </mxCell>
        <mxCell id="6PNMOAPxWjzj0i29cbO6-144" value="" style="endArrow=none;html=1;rounded=0;fontFamily=Times New Roman;fontSize=18;exitX=0.5;exitY=0;exitDx=0;exitDy=0;entryX=1;entryY=1;entryDx=0;entryDy=0;" parent="6PNMOAPxWjzj0i29cbO6-177" source="6PNMOAPxWjzj0i29cbO6-139" target="6PNMOAPxWjzj0i29cbO6-141" edge="1">
          <mxGeometry width="50" height="50" relative="1" as="geometry">
            <mxPoint x="361.8503225806452" y="240" as="sourcePoint" />
            <mxPoint x="401.36645161290323" y="190" as="targetPoint" />
          </mxGeometry>
        </mxCell>
        <mxCell id="6PNMOAPxWjzj0i29cbO6-146" value="" style="endArrow=none;html=1;rounded=0;fontFamily=Times New Roman;fontSize=18;exitX=0.5;exitY=0;exitDx=0;exitDy=0;entryX=0.5;entryY=1;entryDx=0;entryDy=0;" parent="6PNMOAPxWjzj0i29cbO6-177" source="6PNMOAPxWjzj0i29cbO6-141" target="6PNMOAPxWjzj0i29cbO6-136" edge="1">
          <mxGeometry width="50" height="50" relative="1" as="geometry">
            <mxPoint x="361.8503225806452" y="240" as="sourcePoint" />
            <mxPoint x="401.36645161290323" y="190" as="targetPoint" />
          </mxGeometry>
        </mxCell>
        <mxCell id="6PNMOAPxWjzj0i29cbO6-147" value="Date_Hired" style="ellipse;whiteSpace=wrap;html=1;fontFamily=Times New Roman;fontSize=14;" parent="6PNMOAPxWjzj0i29cbO6-177" vertex="1">
          <mxGeometry x="152.41483870967744" y="550" width="86.93548387096774" height="40" as="geometry" />
        </mxCell>
        <mxCell id="6PNMOAPxWjzj0i29cbO6-148" value="" style="endArrow=none;html=1;rounded=0;fontFamily=Times New Roman;fontSize=18;exitX=0.5;exitY=0;exitDx=0;exitDy=0;entryX=0.5;entryY=1;entryDx=0;entryDy=0;" parent="6PNMOAPxWjzj0i29cbO6-177" source="6PNMOAPxWjzj0i29cbO6-147" target="6PNMOAPxWjzj0i29cbO6-137" edge="1">
          <mxGeometry width="50" height="50" relative="1" as="geometry">
            <mxPoint x="361.8503225806452" y="240" as="sourcePoint" />
            <mxPoint x="401.36645161290323" y="190" as="targetPoint" />
          </mxGeometry>
        </mxCell>
        <mxCell id="6PNMOAPxWjzj0i29cbO6-150" value="Skill" style="ellipse;whiteSpace=wrap;html=1;fontFamily=Times New Roman;fontSize=14;" parent="6PNMOAPxWjzj0i29cbO6-177" vertex="1">
          <mxGeometry x="294.2777419354839" y="550" width="86.93548387096774" height="40" as="geometry" />
        </mxCell>
        <mxCell id="6PNMOAPxWjzj0i29cbO6-151" value="" style="endArrow=none;html=1;rounded=0;fontFamily=Times New Roman;fontSize=18;exitX=0.5;exitY=0;exitDx=0;exitDy=0;entryX=0.5;entryY=1;entryDx=0;entryDy=0;" parent="6PNMOAPxWjzj0i29cbO6-177" source="6PNMOAPxWjzj0i29cbO6-150" target="6PNMOAPxWjzj0i29cbO6-140" edge="1">
          <mxGeometry width="50" height="50" relative="1" as="geometry">
            <mxPoint x="361.8503225806452" y="240" as="sourcePoint" />
            <mxPoint x="401.36645161290323" y="190" as="targetPoint" />
          </mxGeometry>
        </mxCell>
        <mxCell id="6PNMOAPxWjzj0i29cbO6-152" value="" style="endArrow=none;html=1;rounded=0;fontFamily=Times New Roman;fontSize=18;entryX=0.5;entryY=1;entryDx=0;entryDy=0;exitX=0.5;exitY=0;exitDx=0;exitDy=0;" parent="6PNMOAPxWjzj0i29cbO6-177" source="6PNMOAPxWjzj0i29cbO6-153" target="6PNMOAPxWjzj0i29cbO6-139" edge="1">
          <mxGeometry width="50" height="50" relative="1" as="geometry">
            <mxPoint x="638.4632258064516" y="410" as="sourcePoint" />
            <mxPoint x="341.301935483871" y="440" as="targetPoint" />
          </mxGeometry>
        </mxCell>
        <mxCell id="6PNMOAPxWjzj0i29cbO6-171" value="(1,N)" style="edgeLabel;html=1;align=center;verticalAlign=middle;resizable=0;points=[];fontSize=18;fontFamily=Times New Roman;" parent="6PNMOAPxWjzj0i29cbO6-152" vertex="1" connectable="0">
          <mxGeometry x="0.3468" y="3" relative="1" as="geometry">
            <mxPoint x="28" y="14" as="offset" />
          </mxGeometry>
        </mxCell>
        <mxCell id="6PNMOAPxWjzj0i29cbO6-172" value="(1,1)" style="edgeLabel;html=1;align=center;verticalAlign=middle;resizable=0;points=[];fontSize=18;fontFamily=Times New Roman;" parent="6PNMOAPxWjzj0i29cbO6-152" vertex="1" connectable="0">
          <mxGeometry x="0.3468" y="3" relative="1" as="geometry">
            <mxPoint x="28" y="144" as="offset" />
          </mxGeometry>
        </mxCell>
        <mxCell id="6PNMOAPxWjzj0i29cbO6-153" value="Donated" style="rhombus;whiteSpace=wrap;html=1;fontFamily=Times New Roman;fontSize=14;" parent="6PNMOAPxWjzj0i29cbO6-177" vertex="1">
          <mxGeometry x="436.9309677419355" y="490" width="63.225806451612904" height="80" as="geometry" />
        </mxCell>
        <mxCell id="6PNMOAPxWjzj0i29cbO6-154" value="Item" style="rounded=0;whiteSpace=wrap;html=1;fontFamily=Times New Roman;fontSize=14;" parent="6PNMOAPxWjzj0i29cbO6-177" vertex="1">
          <mxGeometry x="421.1245161290322" y="620" width="94.83870967741936" height="60" as="geometry" />
        </mxCell>
        <mxCell id="6PNMOAPxWjzj0i29cbO6-98" value="" style="endArrow=none;html=1;rounded=0;fontFamily=Times New Roman;fontSize=14;entryX=0.5;entryY=1;entryDx=0;entryDy=0;exitX=0.5;exitY=0;exitDx=0;exitDy=0;" parent="6PNMOAPxWjzj0i29cbO6-177" source="6PNMOAPxWjzj0i29cbO6-154" target="6PNMOAPxWjzj0i29cbO6-153" edge="1">
          <mxGeometry width="50" height="50" relative="1" as="geometry">
            <mxPoint x="606.6211290322581" y="670" as="sourcePoint" />
            <mxPoint x="164.04048387096776" y="-70" as="targetPoint" />
          </mxGeometry>
        </mxCell>
        <mxCell id="6PNMOAPxWjzj0i29cbO6-155" value="&lt;u&gt;ID&lt;/u&gt;" style="ellipse;whiteSpace=wrap;html=1;fontFamily=Times New Roman;fontSize=14;" parent="6PNMOAPxWjzj0i29cbO6-177" vertex="1">
          <mxGeometry x="306.5277419354839" y="663" width="86.93548387096774" height="40" as="geometry" />
        </mxCell>
        <mxCell id="6PNMOAPxWjzj0i29cbO6-157" value="Description" style="ellipse;whiteSpace=wrap;html=1;fontFamily=Times New Roman;fontSize=14;" parent="6PNMOAPxWjzj0i29cbO6-177" vertex="1">
          <mxGeometry x="543.6245161290321" y="663" width="86.93548387096774" height="40" as="geometry" />
        </mxCell>
        <mxCell id="6PNMOAPxWjzj0i29cbO6-158" value="" style="endArrow=none;html=1;rounded=0;fontFamily=Times New Roman;fontSize=14;entryX=0;entryY=0.5;entryDx=0;entryDy=0;exitX=1;exitY=0;exitDx=0;exitDy=0;" parent="6PNMOAPxWjzj0i29cbO6-177" source="6PNMOAPxWjzj0i29cbO6-155" target="6PNMOAPxWjzj0i29cbO6-154" edge="1">
          <mxGeometry width="50" height="50" relative="1" as="geometry">
            <mxPoint x="606.6211290322581" y="650" as="sourcePoint" />
            <mxPoint x="164.04048387096776" y="-90" as="targetPoint" />
          </mxGeometry>
        </mxCell>
        <mxCell id="6PNMOAPxWjzj0i29cbO6-159" value="" style="endArrow=none;html=1;rounded=0;fontFamily=Times New Roman;fontSize=14;entryX=1;entryY=0.5;entryDx=0;entryDy=0;exitX=0;exitY=0;exitDx=0;exitDy=0;" parent="6PNMOAPxWjzj0i29cbO6-177" source="6PNMOAPxWjzj0i29cbO6-157" target="6PNMOAPxWjzj0i29cbO6-154" edge="1">
          <mxGeometry width="50" height="50" relative="1" as="geometry">
            <mxPoint x="606.6211290322581" y="650" as="sourcePoint" />
            <mxPoint x="164.04048387096776" y="-90" as="targetPoint" />
          </mxGeometry>
        </mxCell>
        <mxCell id="6PNMOAPxWjzj0i29cbO6-160" value="&lt;u&gt;SSN&lt;/u&gt;" style="ellipse;whiteSpace=wrap;html=1;fontFamily=Times New Roman;fontSize=14;" parent="6PNMOAPxWjzj0i29cbO6-177" vertex="1">
          <mxGeometry x="148.4632258064516" y="99" width="86.93548387096774" height="40" as="geometry" />
        </mxCell>
        <mxCell id="6PNMOAPxWjzj0i29cbO6-161" value="" style="endArrow=none;html=1;rounded=0;fontFamily=Times New Roman;fontSize=18;exitX=0.25;exitY=0;exitDx=0;exitDy=0;entryX=1;entryY=1;entryDx=0;entryDy=0;" parent="6PNMOAPxWjzj0i29cbO6-177" source="6PNMOAPxWjzj0i29cbO6-136" target="6PNMOAPxWjzj0i29cbO6-160" edge="1">
          <mxGeometry width="50" height="50" relative="1" as="geometry">
            <mxPoint x="361.8503225806452" y="240" as="sourcePoint" />
            <mxPoint x="401.36645161290323" y="190" as="targetPoint" />
          </mxGeometry>
        </mxCell>
        <mxCell id="6PNMOAPxWjzj0i29cbO6-162" value="Name" style="ellipse;whiteSpace=wrap;html=1;fontFamily=Times New Roman;fontSize=14;" parent="6PNMOAPxWjzj0i29cbO6-177" vertex="1">
          <mxGeometry x="294.2777419354839" y="60" width="86.93548387096774" height="40" as="geometry" />
        </mxCell>
        <mxCell id="6PNMOAPxWjzj0i29cbO6-163" value="Address" style="ellipse;whiteSpace=wrap;html=1;fontFamily=Times New Roman;fontSize=14;" parent="6PNMOAPxWjzj0i29cbO6-177" vertex="1">
          <mxGeometry x="425.07612903225805" y="99" width="86.93548387096774" height="40" as="geometry" />
        </mxCell>
        <mxCell id="6PNMOAPxWjzj0i29cbO6-165" value="City" style="ellipse;whiteSpace=wrap;html=1;fontFamily=Times New Roman;fontSize=14;" parent="6PNMOAPxWjzj0i29cbO6-177" vertex="1">
          <mxGeometry x="448.7858064516129" y="190" width="86.93548387096774" height="40" as="geometry" />
        </mxCell>
        <mxCell id="6PNMOAPxWjzj0i29cbO6-166" value="State" style="ellipse;whiteSpace=wrap;html=1;fontFamily=Times New Roman;fontSize=14;" parent="6PNMOAPxWjzj0i29cbO6-177" vertex="1">
          <mxGeometry x="140.56" y="190" width="86.93548387096774" height="40" as="geometry" />
        </mxCell>
        <mxCell id="6PNMOAPxWjzj0i29cbO6-167" value="" style="endArrow=none;html=1;rounded=0;fontFamily=Times New Roman;fontSize=18;exitX=0.5;exitY=0;exitDx=0;exitDy=0;entryX=0.5;entryY=1;entryDx=0;entryDy=0;" parent="6PNMOAPxWjzj0i29cbO6-177" source="6PNMOAPxWjzj0i29cbO6-136" target="6PNMOAPxWjzj0i29cbO6-162" edge="1">
          <mxGeometry width="50" height="50" relative="1" as="geometry">
            <mxPoint x="361.8503225806452" y="240" as="sourcePoint" />
            <mxPoint x="401.36645161290323" y="190" as="targetPoint" />
          </mxGeometry>
        </mxCell>
        <mxCell id="6PNMOAPxWjzj0i29cbO6-168" value="" style="endArrow=none;html=1;rounded=0;fontFamily=Times New Roman;fontSize=18;exitX=0.75;exitY=0;exitDx=0;exitDy=0;entryX=0;entryY=1;entryDx=0;entryDy=0;" parent="6PNMOAPxWjzj0i29cbO6-177" source="6PNMOAPxWjzj0i29cbO6-136" target="6PNMOAPxWjzj0i29cbO6-163" edge="1">
          <mxGeometry width="50" height="50" relative="1" as="geometry">
            <mxPoint x="361.8503225806452" y="240" as="sourcePoint" />
            <mxPoint x="401.36645161290323" y="190" as="targetPoint" />
          </mxGeometry>
        </mxCell>
        <mxCell id="6PNMOAPxWjzj0i29cbO6-169" value="" style="endArrow=none;html=1;rounded=0;fontFamily=Times New Roman;fontSize=18;exitX=0;exitY=0.5;exitDx=0;exitDy=0;entryX=1;entryY=0.5;entryDx=0;entryDy=0;" parent="6PNMOAPxWjzj0i29cbO6-177" source="6PNMOAPxWjzj0i29cbO6-136" target="6PNMOAPxWjzj0i29cbO6-166" edge="1">
          <mxGeometry width="50" height="50" relative="1" as="geometry">
            <mxPoint x="361.8503225806452" y="240" as="sourcePoint" />
            <mxPoint x="401.36645161290323" y="190" as="targetPoint" />
          </mxGeometry>
        </mxCell>
        <mxCell id="6PNMOAPxWjzj0i29cbO6-170" value="" style="endArrow=none;html=1;rounded=0;fontFamily=Times New Roman;fontSize=18;exitX=1;exitY=0.5;exitDx=0;exitDy=0;entryX=0;entryY=0.5;entryDx=0;entryDy=0;" parent="6PNMOAPxWjzj0i29cbO6-177" source="6PNMOAPxWjzj0i29cbO6-136" target="6PNMOAPxWjzj0i29cbO6-165" edge="1">
          <mxGeometry width="50" height="50" relative="1" as="geometry">
            <mxPoint x="361.8503225806452" y="240" as="sourcePoint" />
            <mxPoint x="401.36645161290323" y="190" as="targetPoint" />
          </mxGeometry>
        </mxCell>
        <mxCell id="6PNMOAPxWjzj0i29cbO6-198" value="Telephone" style="ellipse;whiteSpace=wrap;html=1;fontFamily=Times New Roman;fontSize=14;" parent="6PNMOAPxWjzj0i29cbO6-177" vertex="1">
          <mxGeometry x="453.2958064516129" y="260" width="86.93548387096774" height="40" as="geometry" />
        </mxCell>
        <mxCell id="6PNMOAPxWjzj0i29cbO6-199" value="" style="endArrow=none;html=1;rounded=0;fontFamily=Times New Roman;fontSize=18;exitX=1;exitY=1;exitDx=0;exitDy=0;entryX=0;entryY=0;entryDx=0;entryDy=0;" parent="6PNMOAPxWjzj0i29cbO6-177" source="6PNMOAPxWjzj0i29cbO6-136" target="6PNMOAPxWjzj0i29cbO6-198" edge="1">
          <mxGeometry width="50" height="50" relative="1" as="geometry">
            <mxPoint x="361.8503225806452" y="240" as="sourcePoint" />
            <mxPoint x="401.36645161290323" y="190" as="targetPoint" />
          </mxGeometry>
        </mxCell>
        <mxCell id="6PNMOAPxWjzj0i29cbO6-200" value="" style="verticalLabelPosition=bottom;verticalAlign=top;html=1;shape=mxgraph.basic.arc;startAngle=0.38536499166433463;endAngle=0.611461398827209;fontFamily=Times New Roman;fontSize=18;" parent="6PNMOAPxWjzj0i29cbO6-177" vertex="1">
          <mxGeometry x="316" y="168" width="42.75" height="100" as="geometry" />
        </mxCell>
        <mxCell id="CnlkSe7IBKAiAECf2HbK-15" value="" style="group" parent="1" vertex="1" connectable="0">
          <mxGeometry x="880" y="620" width="610" height="500" as="geometry" />
        </mxCell>
        <mxCell id="CnlkSe7IBKAiAECf2HbK-12" value="" style="rounded=0;whiteSpace=wrap;html=1;fontSize=15;" parent="CnlkSe7IBKAiAECf2HbK-15" vertex="1">
          <mxGeometry width="610" height="500" as="geometry" />
        </mxCell>
        <mxCell id="6PNMOAPxWjzj0i29cbO6-179" value="Physician" style="whiteSpace=wrap;html=1;align=center;fontFamily=Times New Roman;fontSize=18;fontStyle=1" parent="CnlkSe7IBKAiAECf2HbK-15" vertex="1">
          <mxGeometry x="251" y="120" width="100" height="40" as="geometry" />
        </mxCell>
        <mxCell id="6PNMOAPxWjzj0i29cbO6-180" value="physicians number" style="ellipse;whiteSpace=wrap;html=1;align=center;fontFamily=Times New Roman;fontSize=18;fontStyle=4" parent="CnlkSe7IBKAiAECf2HbK-15" vertex="1">
          <mxGeometry x="420" y="80" width="160" height="40" as="geometry" />
        </mxCell>
        <mxCell id="6PNMOAPxWjzj0i29cbO6-182" value="" style="endArrow=none;html=1;rounded=0;fontFamily=Times New Roman;fontSize=18;entryX=0;entryY=1;entryDx=0;entryDy=0;exitX=1;exitY=0.5;exitDx=0;exitDy=0;" parent="CnlkSe7IBKAiAECf2HbK-15" source="6PNMOAPxWjzj0i29cbO6-179" target="6PNMOAPxWjzj0i29cbO6-180" edge="1">
          <mxGeometry relative="1" as="geometry">
            <mxPoint x="190" y="370" as="sourcePoint" />
            <mxPoint x="350" y="370" as="targetPoint" />
          </mxGeometry>
        </mxCell>
        <mxCell id="6PNMOAPxWjzj0i29cbO6-183" value="Specialty" style="ellipse;shape=doubleEllipse;margin=3;whiteSpace=wrap;html=1;align=center;fontFamily=Times New Roman;fontSize=18;" parent="CnlkSe7IBKAiAECf2HbK-15" vertex="1">
          <mxGeometry x="80" y="70" width="100" height="40" as="geometry" />
        </mxCell>
        <mxCell id="6PNMOAPxWjzj0i29cbO6-184" value="" style="endArrow=none;html=1;rounded=0;fontFamily=Times New Roman;fontSize=18;entryX=1;entryY=0.5;entryDx=0;entryDy=0;exitX=0;exitY=0.5;exitDx=0;exitDy=0;" parent="CnlkSe7IBKAiAECf2HbK-15" source="6PNMOAPxWjzj0i29cbO6-179" target="6PNMOAPxWjzj0i29cbO6-183" edge="1">
          <mxGeometry relative="1" as="geometry">
            <mxPoint x="190" y="370" as="sourcePoint" />
            <mxPoint x="350" y="370" as="targetPoint" />
          </mxGeometry>
        </mxCell>
        <mxCell id="6PNMOAPxWjzj0i29cbO6-185" value="Patient" style="whiteSpace=wrap;html=1;align=center;fontFamily=Times New Roman;fontSize=18;fontStyle=1" parent="CnlkSe7IBKAiAECf2HbK-15" vertex="1">
          <mxGeometry x="251" y="350" width="100" height="40" as="geometry" />
        </mxCell>
        <mxCell id="6PNMOAPxWjzj0i29cbO6-186" value="Name" style="ellipse;whiteSpace=wrap;html=1;align=center;fontFamily=Times New Roman;fontSize=18;" parent="CnlkSe7IBKAiAECf2HbK-15" vertex="1">
          <mxGeometry x="60" y="350" width="100" height="40" as="geometry" />
        </mxCell>
        <mxCell id="6PNMOAPxWjzj0i29cbO6-187" value="&lt;u&gt;ID&lt;/u&gt;" style="ellipse;whiteSpace=wrap;html=1;align=center;fontFamily=Times New Roman;fontSize=18;" parent="CnlkSe7IBKAiAECf2HbK-15" vertex="1">
          <mxGeometry x="251" y="430" width="100" height="40" as="geometry" />
        </mxCell>
        <mxCell id="6PNMOAPxWjzj0i29cbO6-188" value="Address" style="ellipse;whiteSpace=wrap;html=1;align=center;fontFamily=Times New Roman;fontSize=18;" parent="CnlkSe7IBKAiAECf2HbK-15" vertex="1">
          <mxGeometry x="470" y="350" width="100" height="40" as="geometry" />
        </mxCell>
        <mxCell id="6PNMOAPxWjzj0i29cbO6-189" value="" style="endArrow=none;html=1;rounded=0;fontFamily=Times New Roman;fontSize=18;entryX=1;entryY=0.5;entryDx=0;entryDy=0;exitX=0;exitY=0.5;exitDx=0;exitDy=0;" parent="CnlkSe7IBKAiAECf2HbK-15" source="6PNMOAPxWjzj0i29cbO6-185" target="6PNMOAPxWjzj0i29cbO6-186" edge="1">
          <mxGeometry relative="1" as="geometry">
            <mxPoint x="250" y="340" as="sourcePoint" />
            <mxPoint x="350" y="410" as="targetPoint" />
          </mxGeometry>
        </mxCell>
        <mxCell id="6PNMOAPxWjzj0i29cbO6-191" value="" style="endArrow=none;html=1;rounded=0;fontFamily=Times New Roman;fontSize=18;entryX=0.5;entryY=0;entryDx=0;entryDy=0;exitX=0.5;exitY=1;exitDx=0;exitDy=0;" parent="CnlkSe7IBKAiAECf2HbK-15" source="6PNMOAPxWjzj0i29cbO6-185" target="6PNMOAPxWjzj0i29cbO6-187" edge="1">
          <mxGeometry relative="1" as="geometry">
            <mxPoint x="250" y="340" as="sourcePoint" />
            <mxPoint x="350" y="410" as="targetPoint" />
          </mxGeometry>
        </mxCell>
        <mxCell id="6PNMOAPxWjzj0i29cbO6-192" value="" style="endArrow=none;html=1;rounded=0;fontFamily=Times New Roman;fontSize=18;entryX=0;entryY=0.5;entryDx=0;entryDy=0;exitX=1;exitY=0.5;exitDx=0;exitDy=0;" parent="CnlkSe7IBKAiAECf2HbK-15" source="6PNMOAPxWjzj0i29cbO6-185" target="6PNMOAPxWjzj0i29cbO6-188" edge="1">
          <mxGeometry relative="1" as="geometry">
            <mxPoint x="250" y="340" as="sourcePoint" />
            <mxPoint x="350" y="410" as="targetPoint" />
          </mxGeometry>
        </mxCell>
        <mxCell id="6PNMOAPxWjzj0i29cbO6-193" value="Treated by" style="shape=rhombus;perimeter=rhombusPerimeter;whiteSpace=wrap;html=1;align=center;fontFamily=Times New Roman;fontSize=18;" parent="CnlkSe7IBKAiAECf2HbK-15" vertex="1">
          <mxGeometry x="236.5" y="220" width="129" height="50" as="geometry" />
        </mxCell>
        <mxCell id="6PNMOAPxWjzj0i29cbO6-194" value="" style="endArrow=none;html=1;rounded=0;fontFamily=Times New Roman;fontSize=18;entryX=0.5;entryY=0;entryDx=0;entryDy=0;exitX=0.5;exitY=1;exitDx=0;exitDy=0;" parent="CnlkSe7IBKAiAECf2HbK-15" source="6PNMOAPxWjzj0i29cbO6-179" target="6PNMOAPxWjzj0i29cbO6-193" edge="1">
          <mxGeometry relative="1" as="geometry">
            <mxPoint x="190" y="170" as="sourcePoint" />
            <mxPoint x="350" y="170" as="targetPoint" />
          </mxGeometry>
        </mxCell>
        <mxCell id="6PNMOAPxWjzj0i29cbO6-195" value="N" style="resizable=0;html=1;align=right;verticalAlign=bottom;fontFamily=Times New Roman;fontSize=18;" parent="6PNMOAPxWjzj0i29cbO6-194" connectable="0" vertex="1">
          <mxGeometry x="1" relative="1" as="geometry" />
        </mxCell>
        <mxCell id="6PNMOAPxWjzj0i29cbO6-196" value="" style="shape=link;html=1;rounded=0;fontFamily=Times New Roman;fontSize=18;entryX=0.5;entryY=0;entryDx=0;entryDy=0;exitX=0.5;exitY=1;exitDx=0;exitDy=0;" parent="CnlkSe7IBKAiAECf2HbK-15" source="6PNMOAPxWjzj0i29cbO6-193" target="6PNMOAPxWjzj0i29cbO6-185" edge="1">
          <mxGeometry relative="1" as="geometry">
            <mxPoint x="190" y="170" as="sourcePoint" />
            <mxPoint x="350" y="170" as="targetPoint" />
          </mxGeometry>
        </mxCell>
        <mxCell id="6PNMOAPxWjzj0i29cbO6-197" value="N" style="resizable=0;html=1;align=right;verticalAlign=bottom;fontFamily=Times New Roman;fontSize=18;" parent="6PNMOAPxWjzj0i29cbO6-196" connectable="0" vertex="1">
          <mxGeometry x="1" relative="1" as="geometry">
            <mxPoint x="-11" y="-10" as="offset" />
          </mxGeometry>
        </mxCell>
        <mxCell id="CnlkSe7IBKAiAECf2HbK-6" value="" style="endArrow=none;html=1;rounded=0;fontSize=14;entryX=0;entryY=0.5;entryDx=0;entryDy=0;exitX=1;exitY=0.5;exitDx=0;exitDy=0;" parent="CnlkSe7IBKAiAECf2HbK-15" source="CnlkSe7IBKAiAECf2HbK-55" target="6PNMOAPxWjzj0i29cbO6-193" edge="1">
          <mxGeometry relative="1" as="geometry">
            <mxPoint x="30" y="320" as="sourcePoint" />
            <mxPoint x="190" y="320" as="targetPoint" />
          </mxGeometry>
        </mxCell>
        <mxCell id="CnlkSe7IBKAiAECf2HbK-7" value="Admitted" style="shape=rhombus;perimeter=rhombusPerimeter;whiteSpace=wrap;html=1;align=center;fontSize=14;" parent="CnlkSe7IBKAiAECf2HbK-15" vertex="1">
          <mxGeometry x="400" y="220" width="120" height="60" as="geometry" />
        </mxCell>
        <mxCell id="CnlkSe7IBKAiAECf2HbK-8" value="" style="endArrow=none;html=1;rounded=0;fontSize=14;entryX=0.5;entryY=0;entryDx=0;entryDy=0;exitX=0.75;exitY=1;exitDx=0;exitDy=0;" parent="CnlkSe7IBKAiAECf2HbK-15" source="6PNMOAPxWjzj0i29cbO6-179" target="CnlkSe7IBKAiAECf2HbK-7" edge="1">
          <mxGeometry relative="1" as="geometry">
            <mxPoint x="30" y="320" as="sourcePoint" />
            <mxPoint x="190" y="320" as="targetPoint" />
          </mxGeometry>
        </mxCell>
        <mxCell id="CnlkSe7IBKAiAECf2HbK-9" value="" style="endArrow=none;html=1;rounded=0;fontSize=14;entryX=0.5;entryY=1;entryDx=0;entryDy=0;exitX=0.75;exitY=0;exitDx=0;exitDy=0;" parent="CnlkSe7IBKAiAECf2HbK-15" source="6PNMOAPxWjzj0i29cbO6-185" target="CnlkSe7IBKAiAECf2HbK-7" edge="1">
          <mxGeometry relative="1" as="geometry">
            <mxPoint x="30" y="320" as="sourcePoint" />
            <mxPoint x="190" y="320" as="targetPoint" />
          </mxGeometry>
        </mxCell>
        <mxCell id="CnlkSe7IBKAiAECf2HbK-10" value="1" style="edgeLabel;html=1;align=center;verticalAlign=middle;resizable=0;points=[];fontSize=15;" parent="CnlkSe7IBKAiAECf2HbK-9" vertex="1" connectable="0">
          <mxGeometry x="-0.2295" y="1" relative="1" as="geometry">
            <mxPoint x="13" y="-125" as="offset" />
          </mxGeometry>
        </mxCell>
        <mxCell id="CnlkSe7IBKAiAECf2HbK-11" value="N" style="edgeLabel;html=1;align=center;verticalAlign=middle;resizable=0;points=[];fontSize=15;" parent="CnlkSe7IBKAiAECf2HbK-9" vertex="1" connectable="0">
          <mxGeometry x="0.1523" y="-4" relative="1" as="geometry">
            <mxPoint x="-5" y="9" as="offset" />
          </mxGeometry>
        </mxCell>
        <mxCell id="CnlkSe7IBKAiAECf2HbK-13" value="&lt;b&gt;Hospital&lt;/b&gt;" style="text;html=1;strokeColor=none;fillColor=none;align=center;verticalAlign=middle;whiteSpace=wrap;rounded=0;fontSize=15;" parent="CnlkSe7IBKAiAECf2HbK-15" vertex="1">
          <mxGeometry x="271" y="10" width="60" height="30" as="geometry" />
        </mxCell>
        <mxCell id="CnlkSe7IBKAiAECf2HbK-14" style="edgeStyle=orthogonalEdgeStyle;rounded=0;orthogonalLoop=1;jettySize=auto;html=1;exitX=0.5;exitY=1;exitDx=0;exitDy=0;fontSize=15;" parent="CnlkSe7IBKAiAECf2HbK-15" source="CnlkSe7IBKAiAECf2HbK-13" target="CnlkSe7IBKAiAECf2HbK-13" edge="1">
          <mxGeometry relative="1" as="geometry" />
        </mxCell>
        <mxCell id="CnlkSe7IBKAiAECf2HbK-55" value="date/time" style="ellipse;shape=doubleEllipse;margin=3;whiteSpace=wrap;html=1;align=center;fontFamily=Times New Roman;fontSize=12;" parent="CnlkSe7IBKAiAECf2HbK-15" vertex="1">
          <mxGeometry x="90" y="200" width="100" height="40" as="geometry" />
        </mxCell>
        <mxCell id="CnlkSe7IBKAiAECf2HbK-17" value="Chemist" style="whiteSpace=wrap;html=1;align=center;fontSize=15;fontFamily=Times New Roman;" parent="1" vertex="1">
          <mxGeometry x="1130" y="1360" width="100" height="40" as="geometry" />
        </mxCell>
        <mxCell id="CnlkSe7IBKAiAECf2HbK-18" value="Project" style="whiteSpace=wrap;html=1;align=center;fontSize=15;fontFamily=Times New Roman;" parent="1" vertex="1">
          <mxGeometry x="1130" y="1550" width="100" height="40" as="geometry" />
        </mxCell>
        <mxCell id="CnlkSe7IBKAiAECf2HbK-20" value="&lt;u style=&quot;font-size: 12px;&quot;&gt;ID&lt;/u&gt;" style="ellipse;whiteSpace=wrap;html=1;align=center;fontSize=12;fontFamily=Times New Roman;" parent="1" vertex="1">
          <mxGeometry x="1030" y="1300" width="80" height="20" as="geometry" />
        </mxCell>
        <mxCell id="CnlkSe7IBKAiAECf2HbK-21" value="Name" style="ellipse;whiteSpace=wrap;html=1;align=center;fontSize=12;fontFamily=Times New Roman;" parent="1" vertex="1">
          <mxGeometry x="1150" y="1280" width="100" height="30" as="geometry" />
        </mxCell>
        <mxCell id="CnlkSe7IBKAiAECf2HbK-22" value="&lt;font style=&quot;font-size: 12px;&quot;&gt;PhoneNumber&lt;/font&gt;" style="ellipse;whiteSpace=wrap;html=1;align=center;fontSize=15;fontFamily=Times New Roman;" parent="1" vertex="1">
          <mxGeometry x="1280" y="1295" width="100" height="30" as="geometry" />
        </mxCell>
        <mxCell id="CnlkSe7IBKAiAECf2HbK-24" value="&lt;u style=&quot;font-size: 12px;&quot;&gt;ID&lt;/u&gt;" style="ellipse;whiteSpace=wrap;html=1;align=center;fontSize=12;fontFamily=Times New Roman;" parent="1" vertex="1">
          <mxGeometry x="970" y="1650" width="70" height="20" as="geometry" />
        </mxCell>
        <mxCell id="CnlkSe7IBKAiAECf2HbK-26" value="Start date" style="ellipse;whiteSpace=wrap;html=1;align=center;fontSize=12;fontFamily=Times New Roman;" parent="1" vertex="1">
          <mxGeometry x="940" y="1500" width="90" height="30" as="geometry" />
        </mxCell>
        <mxCell id="CnlkSe7IBKAiAECf2HbK-27" value="Equipment" style="whiteSpace=wrap;html=1;align=center;fontSize=15;fontFamily=Times New Roman;" parent="1" vertex="1">
          <mxGeometry x="1470" y="1450" width="100" height="40" as="geometry" />
        </mxCell>
        <mxCell id="CnlkSe7IBKAiAECf2HbK-28" value="&lt;u&gt;Serial number&lt;/u&gt;" style="ellipse;whiteSpace=wrap;html=1;align=center;fontSize=12;fontFamily=Times New Roman;" parent="1" vertex="1">
          <mxGeometry x="1470" y="1380" width="100" height="20" as="geometry" />
        </mxCell>
        <mxCell id="CnlkSe7IBKAiAECf2HbK-29" value="" style="endArrow=none;html=1;rounded=0;fontFamily=Times New Roman;fontSize=12;entryX=0.25;entryY=0;entryDx=0;entryDy=0;exitX=0.92;exitY=0.825;exitDx=0;exitDy=0;exitPerimeter=0;" parent="1" source="CnlkSe7IBKAiAECf2HbK-20" target="CnlkSe7IBKAiAECf2HbK-17" edge="1">
          <mxGeometry relative="1" as="geometry">
            <mxPoint x="900" y="1410" as="sourcePoint" />
            <mxPoint x="1060" y="1410" as="targetPoint" />
          </mxGeometry>
        </mxCell>
        <mxCell id="CnlkSe7IBKAiAECf2HbK-30" value="" style="endArrow=none;html=1;rounded=0;fontFamily=Times New Roman;fontSize=12;entryX=0.5;entryY=0;entryDx=0;entryDy=0;exitX=0.5;exitY=1;exitDx=0;exitDy=0;" parent="1" source="CnlkSe7IBKAiAECf2HbK-21" target="CnlkSe7IBKAiAECf2HbK-17" edge="1">
          <mxGeometry relative="1" as="geometry">
            <mxPoint x="900" y="1410" as="sourcePoint" />
            <mxPoint x="1060" y="1410" as="targetPoint" />
          </mxGeometry>
        </mxCell>
        <mxCell id="CnlkSe7IBKAiAECf2HbK-31" value="" style="endArrow=none;html=1;rounded=0;fontFamily=Times New Roman;fontSize=12;entryX=0.5;entryY=0;entryDx=0;entryDy=0;exitX=0;exitY=1;exitDx=0;exitDy=0;" parent="1" source="CnlkSe7IBKAiAECf2HbK-22" target="CnlkSe7IBKAiAECf2HbK-17" edge="1">
          <mxGeometry relative="1" as="geometry">
            <mxPoint x="900" y="1410" as="sourcePoint" />
            <mxPoint x="1060" y="1410" as="targetPoint" />
          </mxGeometry>
        </mxCell>
        <mxCell id="CnlkSe7IBKAiAECf2HbK-32" value="" style="endArrow=none;html=1;rounded=0;fontFamily=Times New Roman;fontSize=12;entryX=0;entryY=0.5;entryDx=0;entryDy=0;exitX=1;exitY=1;exitDx=0;exitDy=0;" parent="1" source="CnlkSe7IBKAiAECf2HbK-26" target="CnlkSe7IBKAiAECf2HbK-18" edge="1">
          <mxGeometry relative="1" as="geometry">
            <mxPoint x="900" y="1410" as="sourcePoint" />
            <mxPoint x="1060" y="1410" as="targetPoint" />
          </mxGeometry>
        </mxCell>
        <mxCell id="CnlkSe7IBKAiAECf2HbK-34" value="" style="endArrow=none;html=1;rounded=0;fontFamily=Times New Roman;fontSize=12;entryX=0;entryY=1;entryDx=0;entryDy=0;exitX=0.71;exitY=-0.025;exitDx=0;exitDy=0;exitPerimeter=0;" parent="1" source="CnlkSe7IBKAiAECf2HbK-24" target="CnlkSe7IBKAiAECf2HbK-18" edge="1">
          <mxGeometry relative="1" as="geometry">
            <mxPoint x="900" y="1410" as="sourcePoint" />
            <mxPoint x="1060" y="1410" as="targetPoint" />
          </mxGeometry>
        </mxCell>
        <mxCell id="CnlkSe7IBKAiAECf2HbK-35" value="Work on" style="shape=rhombus;perimeter=rhombusPerimeter;whiteSpace=wrap;html=1;align=center;fontFamily=Times New Roman;fontSize=12;" parent="1" vertex="1">
          <mxGeometry x="1120" y="1440" width="120" height="60" as="geometry" />
        </mxCell>
        <mxCell id="CnlkSe7IBKAiAECf2HbK-36" value="" style="shape=link;html=1;rounded=0;fontFamily=Times New Roman;fontSize=12;entryX=0.5;entryY=0;entryDx=0;entryDy=0;exitX=0.5;exitY=1;exitDx=0;exitDy=0;" parent="1" source="CnlkSe7IBKAiAECf2HbK-17" target="CnlkSe7IBKAiAECf2HbK-35" edge="1">
          <mxGeometry relative="1" as="geometry">
            <mxPoint x="900" y="1410" as="sourcePoint" />
            <mxPoint x="1060" y="1410" as="targetPoint" />
          </mxGeometry>
        </mxCell>
        <mxCell id="CnlkSe7IBKAiAECf2HbK-37" value="N" style="resizable=0;html=1;align=right;verticalAlign=bottom;fontFamily=Times New Roman;fontSize=12;" parent="CnlkSe7IBKAiAECf2HbK-36" connectable="0" vertex="1">
          <mxGeometry x="1" relative="1" as="geometry">
            <mxPoint x="-5" y="-10" as="offset" />
          </mxGeometry>
        </mxCell>
        <mxCell id="CnlkSe7IBKAiAECf2HbK-39" value="" style="endArrow=none;html=1;rounded=0;fontFamily=Times New Roman;fontSize=12;entryX=0.5;entryY=0;entryDx=0;entryDy=0;exitX=0.5;exitY=1;exitDx=0;exitDy=0;" parent="1" source="CnlkSe7IBKAiAECf2HbK-35" target="CnlkSe7IBKAiAECf2HbK-18" edge="1">
          <mxGeometry relative="1" as="geometry">
            <mxPoint x="900" y="1410" as="sourcePoint" />
            <mxPoint x="1060" y="1410" as="targetPoint" />
          </mxGeometry>
        </mxCell>
        <mxCell id="CnlkSe7IBKAiAECf2HbK-40" value="N" style="resizable=0;html=1;align=right;verticalAlign=bottom;fontFamily=Times New Roman;fontSize=12;" parent="CnlkSe7IBKAiAECf2HbK-39" connectable="0" vertex="1">
          <mxGeometry x="1" relative="1" as="geometry" />
        </mxCell>
        <mxCell id="CnlkSe7IBKAiAECf2HbK-42" value="Use" style="shape=rhombus;perimeter=rhombusPerimeter;whiteSpace=wrap;html=1;align=center;fontFamily=Times New Roman;fontSize=12;" parent="1" vertex="1">
          <mxGeometry x="1290" y="1440" width="120" height="60" as="geometry" />
        </mxCell>
        <mxCell id="CnlkSe7IBKAiAECf2HbK-44" value="" style="endArrow=none;html=1;rounded=0;fontFamily=Times New Roman;fontSize=12;exitX=1;exitY=0.5;exitDx=0;exitDy=0;entryX=0;entryY=0;entryDx=0;entryDy=0;" parent="1" source="CnlkSe7IBKAiAECf2HbK-17" target="CnlkSe7IBKAiAECf2HbK-42" edge="1">
          <mxGeometry relative="1" as="geometry">
            <mxPoint x="1340" y="1510" as="sourcePoint" />
            <mxPoint x="1500" y="1510" as="targetPoint" />
          </mxGeometry>
        </mxCell>
        <mxCell id="CnlkSe7IBKAiAECf2HbK-45" value="N" style="resizable=0;html=1;align=right;verticalAlign=bottom;fontFamily=Times New Roman;fontSize=12;" parent="CnlkSe7IBKAiAECf2HbK-44" connectable="0" vertex="1">
          <mxGeometry x="1" relative="1" as="geometry">
            <mxPoint x="-20" y="-25" as="offset" />
          </mxGeometry>
        </mxCell>
        <mxCell id="CnlkSe7IBKAiAECf2HbK-46" value="" style="endArrow=none;html=1;rounded=0;fontFamily=Times New Roman;fontSize=12;exitX=1;exitY=0.5;exitDx=0;exitDy=0;entryX=0;entryY=0.5;entryDx=0;entryDy=0;" parent="1" source="CnlkSe7IBKAiAECf2HbK-42" target="CnlkSe7IBKAiAECf2HbK-27" edge="1">
          <mxGeometry relative="1" as="geometry">
            <mxPoint x="1340" y="1510" as="sourcePoint" />
            <mxPoint x="1500" y="1510" as="targetPoint" />
          </mxGeometry>
        </mxCell>
        <mxCell id="CnlkSe7IBKAiAECf2HbK-47" value="N" style="resizable=0;html=1;align=right;verticalAlign=bottom;fontFamily=Times New Roman;fontSize=12;" parent="CnlkSe7IBKAiAECf2HbK-46" connectable="0" vertex="1">
          <mxGeometry x="1" relative="1" as="geometry">
            <mxPoint x="-20" as="offset" />
          </mxGeometry>
        </mxCell>
        <mxCell id="CnlkSe7IBKAiAECf2HbK-48" value="" style="endArrow=none;html=1;rounded=0;fontFamily=Times New Roman;fontSize=12;exitX=1;exitY=0.5;exitDx=0;exitDy=0;entryX=0;entryY=1;entryDx=0;entryDy=0;" parent="1" source="CnlkSe7IBKAiAECf2HbK-18" target="CnlkSe7IBKAiAECf2HbK-42" edge="1">
          <mxGeometry relative="1" as="geometry">
            <mxPoint x="1340" y="1510" as="sourcePoint" />
            <mxPoint x="1500" y="1510" as="targetPoint" />
          </mxGeometry>
        </mxCell>
        <mxCell id="CnlkSe7IBKAiAECf2HbK-49" value="N" style="resizable=0;html=1;align=right;verticalAlign=bottom;fontFamily=Times New Roman;fontSize=12;" parent="CnlkSe7IBKAiAECf2HbK-48" connectable="0" vertex="1">
          <mxGeometry x="1" relative="1" as="geometry">
            <mxPoint x="-40" y="25" as="offset" />
          </mxGeometry>
        </mxCell>
        <mxCell id="CnlkSe7IBKAiAECf2HbK-50" value="" style="endArrow=none;html=1;rounded=0;fontFamily=Times New Roman;fontSize=12;entryX=0.5;entryY=1;entryDx=0;entryDy=0;exitX=0.5;exitY=0;exitDx=0;exitDy=0;" parent="1" source="CnlkSe7IBKAiAECf2HbK-27" target="CnlkSe7IBKAiAECf2HbK-28" edge="1">
          <mxGeometry relative="1" as="geometry">
            <mxPoint x="1340" y="1510" as="sourcePoint" />
            <mxPoint x="1500" y="1510" as="targetPoint" />
          </mxGeometry>
        </mxCell>
        <mxCell id="CnlkSe7IBKAiAECf2HbK-51" value="Date" style="ellipse;whiteSpace=wrap;html=1;align=center;fontFamily=Times New Roman;fontSize=12;" parent="1" vertex="1">
          <mxGeometry x="1330" y="1380" width="80" height="20" as="geometry" />
        </mxCell>
        <mxCell id="CnlkSe7IBKAiAECf2HbK-52" value="" style="endArrow=none;html=1;rounded=0;fontFamily=Times New Roman;fontSize=12;entryX=0.5;entryY=1;entryDx=0;entryDy=0;exitX=0.5;exitY=0;exitDx=0;exitDy=0;" parent="1" source="CnlkSe7IBKAiAECf2HbK-42" target="CnlkSe7IBKAiAECf2HbK-51" edge="1">
          <mxGeometry relative="1" as="geometry">
            <mxPoint x="1340" y="1510" as="sourcePoint" />
            <mxPoint x="1500" y="1510" as="targetPoint" />
          </mxGeometry>
        </mxCell>
        <mxCell id="F4xHrbZ4QBiIfUS1ALYh-3" value="&lt;b style=&quot;font-size: 16px;&quot;&gt;Laboratory&lt;/b&gt;" style="text;html=1;strokeColor=none;fillColor=none;align=center;verticalAlign=middle;whiteSpace=wrap;rounded=0;fontSize=16;" vertex="1" parent="1">
          <mxGeometry x="1200" y="1230" width="60" height="30" as="geometry" />
        </mxCell>
      </root>
    </mxGraphModel>
  </diagram>
</mxfile>
